<?xml version="1.0" encoding="utf-8"?>
<!-- Generator: Adobe Illustrator 21.1.0, SVG Export Plug-In . SVG Version: 6.00 Build 0)  -->
<svg version="1.1" id="Layer_1" xmlns="http://www.w3.org/2000/svg" xmlns:xlink="http://www.w3.org/1999/xlink" x="0px" y="0px"
	 viewBox="0 0 200 36" style="enable-background:new 0 0 200 36;" xml:space="preserve">
<style type="text/css">
	.st0{fill:#FFFFFF;}
</style>
<g>
	<path class="st0" d="M14.9,21.9c0,1.2-0.3,2.2-0.9,3.1c-0.6,0.9-1.4,1.6-2.5,2.1c-1.1,0.5-2.4,0.7-3.9,0.7c-1.2,0-2.3-0.1-3.1-0.3
		c-0.8-0.2-1.7-0.5-2.6-0.9v-4.5c1,0.5,2,0.9,3,1.2c1,0.3,2,0.4,2.9,0.4c0.7,0,1.3-0.1,1.6-0.4c0.3-0.3,0.5-0.6,0.5-1
		c0-0.3-0.1-0.5-0.2-0.7C9.5,21.4,9.3,21.2,9,21c-0.3-0.2-1.1-0.6-2.5-1.2c-1.2-0.6-2.1-1.1-2.7-1.6c-0.6-0.5-1.1-1.1-1.4-1.8
		C2.1,15.8,2,15,2,14.1c0-1.7,0.6-3.1,1.9-4c1.2-1,3-1.4,5.2-1.4c1.9,0,3.9,0.4,5.9,1.3l-1.5,3.9c-1.7-0.8-3.2-1.2-4.5-1.2
		c-0.7,0-1.1,0.1-1.4,0.3S7,13.5,7,13.8c0,0.4,0.2,0.7,0.6,1c0.4,0.3,1.4,0.8,3.1,1.6c1.6,0.7,2.7,1.5,3.3,2.3
		C14.6,19.6,14.9,20.6,14.9,21.9z"/>
	<path class="st0" d="M26.9,27.5l-1-1.9h-0.1c-0.7,0.8-1.4,1.4-2.1,1.7c-0.7,0.3-1.6,0.5-2.7,0.5c-1.4,0-2.4-0.4-3.2-1.2
		c-0.8-0.8-1.2-2-1.2-3.4c0-1.5,0.5-2.7,1.6-3.4c1.1-0.8,2.6-1.2,4.7-1.3l2.4-0.1v-0.2c0-1.2-0.6-1.8-1.8-1.8c-1.1,0-2.4,0.4-4,1.1
		l-1.4-3.3c1.7-0.9,3.8-1.3,6.4-1.3c1.9,0,3.3,0.5,4.3,1.4s1.5,2.2,1.5,3.8v9.5H26.9z M23.2,24.3c0.6,0,1.1-0.2,1.5-0.6
		c0.4-0.4,0.6-0.9,0.6-1.5v-1.1l-1.1,0.1c-1.6,0.1-2.5,0.7-2.5,1.8C21.8,23.8,22.3,24.3,23.2,24.3z"/>
	<path class="st0" d="M44.9,23.1c0,1.5-0.5,2.7-1.6,3.5c-1.1,0.8-2.6,1.2-4.5,1.2c-1.1,0-2-0.1-2.8-0.2c-0.8-0.1-1.6-0.3-2.4-0.6v-4
		c0.8,0.3,1.6,0.6,2.5,0.8s1.7,0.3,2.5,0.3c1.1,0,1.6-0.2,1.6-0.7c0-0.3-0.2-0.5-0.5-0.7c-0.3-0.2-1.2-0.6-2.6-1.2
		c-1.3-0.5-2.3-1.2-2.8-1.9c-0.5-0.7-0.8-1.6-0.8-2.6c0-1.3,0.5-2.4,1.6-3.1c1-0.7,2.5-1.1,4.4-1.1c1,0,1.8,0.1,2.7,0.3
		c0.8,0.2,1.7,0.5,2.6,0.9l-1.4,3.2c-0.7-0.3-1.4-0.5-2.1-0.8c-0.7-0.2-1.3-0.3-1.8-0.3c-0.8,0-1.2,0.2-1.2,0.6
		c0,0.2,0.1,0.5,0.4,0.6s1.1,0.5,2.5,1.1c1,0.4,1.8,0.8,2.3,1.2s0.9,0.9,1.1,1.4C44.8,21.7,44.9,22.3,44.9,23.1z"/>
	<path class="st0" d="M58.8,23.1c0,1.5-0.5,2.7-1.6,3.5c-1.1,0.8-2.6,1.2-4.5,1.2c-1.1,0-2-0.1-2.8-0.2c-0.8-0.1-1.6-0.3-2.4-0.6v-4
		c0.8,0.3,1.6,0.6,2.5,0.8s1.7,0.3,2.5,0.3c1.1,0,1.6-0.2,1.6-0.7c0-0.3-0.2-0.5-0.5-0.7c-0.3-0.2-1.2-0.6-2.6-1.2
		c-1.3-0.5-2.3-1.2-2.8-1.9c-0.5-0.7-0.8-1.6-0.8-2.6c0-1.3,0.5-2.4,1.6-3.1c1-0.7,2.5-1.1,4.4-1.1c1,0,1.8,0.1,2.7,0.3
		c0.8,0.2,1.7,0.5,2.6,0.9l-1.4,3.2c-0.7-0.3-1.4-0.5-2.1-0.8c-0.7-0.2-1.3-0.3-1.8-0.3c-0.8,0-1.2,0.2-1.2,0.6
		c0,0.2,0.1,0.5,0.4,0.6s1.1,0.5,2.5,1.1c1,0.4,1.8,0.8,2.3,1.2s0.9,0.9,1.1,1.4C58.7,21.7,58.8,22.3,58.8,23.1z"/>
	<path class="st0" d="M81.2,27.5L80,26.2c-0.8,0.5-1.4,0.8-1.9,1s-1,0.3-1.6,0.4c-0.6,0.1-1.3,0.1-2.1,0.1c-1.3,0-2.5-0.2-3.6-0.7
		S69,26,68.4,25.2s-0.8-1.8-0.8-2.8c0-2.2,1.2-3.9,3.5-5.1c-0.5-0.6-0.9-1.2-1.2-1.9c-0.3-0.7-0.4-1.4-0.4-2.3
		c0-1.4,0.5-2.4,1.6-3.2s2.5-1.2,4.3-1.2c1.8,0,3.2,0.4,4.2,1.2c1,0.8,1.5,1.9,1.5,3.2c0,0.9-0.3,1.8-0.8,2.6
		c-0.5,0.8-1.4,1.6-2.6,2.3l2.5,2.4c0.6-1,1.1-2.1,1.3-3.3h5.2c-0.3,1.2-0.7,2.3-1.2,3.5c-0.5,1.2-1.2,2.2-1.9,3l4.1,3.9H81.2z
		 M72.7,22c0,0.5,0.2,1,0.6,1.3c0.4,0.3,0.9,0.5,1.5,0.5c0.5,0,0.9-0.1,1.3-0.2c0.4-0.1,0.6-0.3,0.8-0.4L73.8,20
		C73.1,20.5,72.7,21.2,72.7,22z M76.5,13.1c0-0.4-0.1-0.7-0.4-0.9c-0.2-0.2-0.5-0.3-0.9-0.3c-0.4,0-0.7,0.1-0.9,0.3s-0.4,0.6-0.4,1
		c0,0.6,0.4,1.3,1.1,2c0.5-0.3,0.9-0.6,1.1-1S76.5,13.5,76.5,13.1z"/>
	<path class="st0" d="M101.3,27.5h-5V8.9h11v4h-6.1v3.6h5.6v4h-5.6V27.5z"/>
	<path class="st0" d="M115.1,27.5h-5V7.7h5V27.5z"/>
	<path class="st0" d="M125.5,27.8c-2.4,0-4.3-0.6-5.6-1.9s-2-3.1-2-5.5c0-2.4,0.6-4.3,1.8-5.6s3-2,5.3-2c2.2,0,3.9,0.6,5,1.7
		s1.8,2.8,1.8,4.9v2.2H123c0,0.8,0.3,1.4,0.9,1.9s1.3,0.7,2.3,0.7c0.9,0,1.7-0.1,2.4-0.2s1.5-0.4,2.4-0.8v3.6
		c-0.8,0.4-1.6,0.7-2.4,0.8C127.7,27.7,126.7,27.8,125.5,27.8z M125.2,16.2c-0.6,0-1.1,0.2-1.5,0.6c-0.4,0.4-0.6,0.9-0.7,1.7h4.3
		c0-0.7-0.2-1.3-0.6-1.7C126.4,16.4,125.9,16.2,125.2,16.2z"/>
	<path class="st0" d="M137.8,20.2l-4.4-7.1h5.7l2.2,4.1l2.2-4.1h5.7l-4.5,7.1l4.7,7.4h-5.7l-2.4-4.4l-2.4,4.4h-5.7L137.8,20.2z"/>
	<path class="st0" d="M160,12.8c1.6,0,2.8,0.7,3.7,2c0.9,1.3,1.4,3.1,1.4,5.5c0,2.3-0.5,4.2-1.4,5.5s-2.2,2-3.9,2
		c-0.5,0-1-0.1-1.4-0.2c-0.4-0.1-0.8-0.3-1.1-0.5s-0.7-0.5-1.1-1h-0.3l-0.8,1.4h-3.9V7.7h5v4.5c0,0.5-0.1,1.5-0.2,2.8h0.2
		c0.5-0.7,1-1.3,1.7-1.6C158.4,13,159.2,12.8,160,12.8z M158.1,16.7c-0.7,0-1.2,0.2-1.5,0.7s-0.5,1.2-0.5,2.3v0.7
		c0,1.2,0.2,2,0.5,2.5s0.8,0.8,1.6,0.8c0.6,0,1-0.3,1.4-0.9c0.3-0.6,0.5-1.5,0.5-2.6C160,17.9,159.4,16.7,158.1,16.7z"/>
	<path class="st0" d="M181.7,20.3c0,2.4-0.6,4.2-1.9,5.5s-3,2-5.3,2c-2.2,0-3.9-0.7-5.2-2c-1.3-1.4-1.9-3.2-1.9-5.5
		c0-2.4,0.6-4.2,1.9-5.5c1.3-1.3,3.1-2,5.3-2c1.4,0,2.7,0.3,3.8,0.9s1.9,1.5,2.5,2.6S181.7,18.8,181.7,20.3z M172.4,20.3
		c0,1.2,0.2,2.2,0.5,2.8c0.3,0.7,0.9,1,1.7,1c0.8,0,1.3-0.3,1.6-1c0.3-0.6,0.5-1.6,0.5-2.8c0-1.2-0.2-2.2-0.5-2.8s-0.9-0.9-1.7-0.9
		c-0.8,0-1.3,0.3-1.6,0.9C172.5,18.1,172.4,19,172.4,20.3z"/>
	<path class="st0" d="M187.6,20.2l-4.4-7.1h5.7l2.2,4.1l2.2-4.1h5.7l-4.5,7.1l4.7,7.4h-5.7l-2.4-4.4l-2.4,4.4H183L187.6,20.2z"/>
</g>
</svg>
